<svg height="512" viewBox="0 0 44 60" width="512" xmlns="http://www.w3.org/2000/svg"><g id="015---4-Door-Locker" fill="none"><g id="Icons" transform="translate(1 1)"><path id="Shape" d="m21 27v27h-19c-1.1045695 0-2-.8954305-2-2v-25z" fill="#60a917"/><path id="Shape" d="m42 27v25c0 1.1045695-.8954305 2-2 2h-19v-27h10v6.89c.0025288.3844442.2252283.7333995.5728461.8976116s.7585967.1146018 1.0571539-.1276116c4.19-3.43 5.46-4.47 6.37-5.2z" fill="#6a1b9a"/><path id="Shape" d="m39 29.46v22.54c.0692985 1.0209478-.6906847 1.909817-1.71 2h-16.29v-27h10v6.89c.0025288.3844442.2252283.7333995.5728461.8976116s.7585967.1146018 1.0571539-.1276116c4.19-3.43 5.46-4.47 6.37-5.2z" fill="#9d27b0"/><g fill="#3f51b5"><path id="Shape" d="m42 2v25h-21v-27h19c1.1045695 0 2 .8954305 2 2z"/><circle id="Oval" cx="6" cy="56" r="2"/><circle id="Oval" cx="36" cy="56" r="2"/></g><path id="Shape" d="m26 23h5v4h-6v-3c0-.5522847.4477153-1 1-1z" fill="#ffdc00"/><path id="Shape" d="m21 0v27h-21v-25c0-1.1045695.8954305-2 2-2z" fill="#9d27b0"/><path id="Shape" d="m31 4.86v11.14h-6v-11.14c.0425327-.51165866.4877395-.89453648 1-.86h4c.5122605-.03453648.9574673.34834134 1 .86z" fill="#ef314c"/><path id="Shape" d="m36.75 4.3-5 4.1c-.3754451.31098214-.6243754.74838833-.7 1.23v5.17-9.94c.0419351-.4915406.456724-.86703372.95-.86h4c.2795941-.00183156.5487985.10585018.75.3z" fill="#02a9f4"/><path id="Shape" d="m42 2v25l-3 2.46c-.91.73-2.18 1.77-6.37 5.2-.2985572.2422134-.7095361.2918237-1.0571539.1276116s-.5703173-.5131674-.5728461-.8976116v-17.89c0-6.86 0-6.22 0-6.37.0756246-.48161167.3245549-.91901786.7-1.23l5-4.1 4.61-3.77c.4275277.37037815.6782251.90447262.69 1.47z" fill="#60a917"/><path id="Shape" d="m41.36.53-2.36 1.93v24.54l-8 6.54v.35c.0025288.3844442.2252283.7333995.5728461.8976116s.7585967.1146018 1.0571539-.1276116l9.37-7.66v-25c.0009965-.5578093-.231006-1.09068996-.64-1.47z" fill="#549414"/></g><g id="Outline" fill="#000"><path id="Shape" d="m44 53v-50c0-1.65685425-1.3431458-3-3-3h-38c-1.65685425 0-3 1.34314575-3 3v50c0 1.6568542 1.34314575 3 3 3h1.18c-.45198446 1.2453025-.03363589 2.6396392 1.02924608 3.4304301 1.06288197.790791 2.51862587.790791 3.58150784 0 1.06288197-.7907909 1.48123058-2.1851276 1.02924608-3.4304301h24.36c-.4519845 1.2453025-.0336359 2.6396392 1.0292461 3.4304301 1.0628819.790791 2.5186259.790791 3.5815078 0 1.062882-.7907909 1.4812306-2.1851276 1.0292461-3.4304301h1.18c1.6568542 0 3-1.3431458 3-3zm-3 1h-18v-25h8v5.89c-.0019288.7745019.4434844 1.4804927 1.143346 1.8122314s1.528342.2295812 2.126654-.2622314l7.73-6.33v22.89c0 .5522847-.4477153 1-1 1zm1-26.47-9.0000058 7.36.0000058-23.89c-.0010289-.3025884.1350085-.5893699.37-.78l8.63-7zm-9-19.64v-1.89h2.31zm-2 .11h-4v-2h4zm-4 2h4v7h-4zm4 17h-4v-2h4zm6.62-22.89c-.45-.11-.21-.11-4.62-.11-.3521724.00365747-.6971344.10024682-1 .28-.64-.37-.68-.28-5-.28-1.1045695 0-2 .8954305-2 2v11h-2v-15h17.21zm-14.62 14.89h8v4h-4c-1.1045695 0-2 .8954305-2 2v2h-2zm-20-17h18v25h-19v-24c0-.55228475.44771525-1 1-1zm-1 51v-24h19v25h-18c-.55228475 0-1-.4477153-1-1zm6 4c0 .5522847-.44771525 1-1 1s-1-.4477153-1-1 .44771525-1 1-1 1 .4477153 1 1zm30 0c0 .5522847-.4477153 1-1 1s-1-.4477153-1-1 .4477153-1 1-1 1 .4477153 1 1z"/><path id="Shape" d="m6 14h1c.55228475 0 1-.4477153 1-1s-.44771525-1-1-1h-1v-6h1c.55228475 0 1-.44771525 1-1s-.44771525-1-1-1h-1c-1.1045695 0-2 .8954305-2 2v6c0 1.1045695.8954305 2 2 2z"/><circle id="Oval" cx="5" cy="17" r="1"/><path id="Shape" d="m28 33c.5522847 0 1-.4477153 1-1s-.4477153-1-1-1h-1c-1.1045695 0-2 .8954305-2 2v6c0 1.1045695.8954305 2 2 2h1c.5522847 0 1-.4477153 1-1s-.4477153-1-1-1h-1v-6z"/><circle id="Oval" cx="26" cy="44" r="1"/><path id="Shape" d="m8 40c0-.5522847-.44771525-1-1-1h-1v-6h1c.55228475 0 1-.4477153 1-1s-.44771525-1-1-1h-1c-1.1045695 0-2 .8954305-2 2v6c0 1.1045695.8954305 2 2 2h1c.55228475 0 1-.4477153 1-1z"/><circle id="Oval" cx="5" cy="44" r="1"/><path id="Shape" d="m36 12c-.5522847 0-1 .4477153-1 1v8c0 .5522847.4477153 1 1 1s1-.4477153 1-1v-8c0-.5522847-.4477153-1-1-1z"/></g></g></svg>